<svg width="55" height="37" viewBox="0 0 55 37" fill="none" xmlns="http://www.w3.org/2000/svg">
<path fill-rule="evenodd" clip-rule="evenodd" d="M0.125 2.53125C0.125 1.27135 1.14635 0.25 2.40625 0.25H52.5937C53.8536 0.25 54.875 1.27135 54.875 2.53125C54.875 3.79115 53.8536 4.8125 52.5937 4.8125H2.40625C1.14635 4.8125 0.125 3.79115 0.125 2.53125ZM0.125 18.5C0.125 17.2401 1.14635 16.2188 2.40625 16.2188H52.5937C53.8536 16.2188 54.875 17.2401 54.875 18.5C54.875 19.7599 53.8536 20.7812 52.5937 20.7812H2.40625C1.14635 20.7812 0.125 19.7599 0.125 18.5ZM25.2187 34.4688C25.2187 33.2088 26.2401 32.1875 27.5 32.1875H52.5937C53.8536 32.1875 54.875 33.2088 54.875 34.4688C54.875 35.7287 53.8536 36.75 52.5937 36.75H27.5C26.2401 36.75 25.2187 35.7287 25.2187 34.4688Z" fill="white"/>
</svg>
