<svg width="33" height="33" viewBox="0 0 33 33" fill="none" xmlns="http://www.w3.org/2000/svg">
<g clip-path="url(#clip0_128_527)">
<path d="M16.7731 3.44162C21.0995 3.44162 21.6118 3.46059 23.3133 3.53649C24.8945 3.60607 25.7484 3.87172 26.3177 4.0931C27.0704 4.38405 27.6143 4.73826 28.1772 5.30119C28.7465 5.87045 29.0944 6.40808 29.3853 7.16076C29.6067 7.73002 29.8724 8.59023 29.9419 10.1652C30.0178 11.8729 30.0368 12.3853 30.0368 16.7053C30.0368 21.0317 30.0178 21.544 29.9419 23.2454C29.8724 24.8267 29.6067 25.6806 29.3853 26.2498C29.0944 27.0025 28.7402 27.5465 28.1772 28.1094C27.608 28.6787 27.0704 29.0266 26.3177 29.3175C25.7484 29.5389 24.8882 29.8045 23.3133 29.8741C21.6055 29.95 21.0932 29.969 16.7731 29.969C12.4468 29.969 11.9344 29.95 10.233 29.8741C8.65173 29.8045 7.79785 29.5389 7.22859 29.3175C6.4759 29.0266 5.93195 28.6724 5.36902 28.1094C4.79976 27.5402 4.45188 27.0025 4.16093 26.2498C3.93955 25.6806 3.6739 24.8204 3.60432 23.2454C3.52842 21.5377 3.50944 21.0253 3.50944 16.7053C3.50944 12.379 3.52842 11.8666 3.60432 10.1652C3.6739 8.5839 3.93955 7.73002 4.16093 7.16076C4.45188 6.40808 4.80608 5.86412 5.36902 5.30119C5.93827 4.73193 6.4759 4.38405 7.22859 4.0931C7.79785 3.87172 8.65806 3.60607 10.233 3.53649C11.9344 3.46059 12.4468 3.44162 16.7731 3.44162ZM16.7731 0.525757C12.3772 0.525757 11.8269 0.544732 10.1002 0.620633C8.37975 0.696534 7.19696 0.974837 6.1723 1.37332C5.10336 1.79077 4.19888 2.34105 3.30072 3.24554C2.39623 4.1437 1.84595 5.04819 1.42849 6.1108C1.03001 7.14179 0.75171 8.31825 0.675809 10.0387C0.599908 11.7717 0.580933 12.322 0.580933 16.718C0.580933 21.1139 0.599908 21.6642 0.675809 23.3909C0.75171 25.1113 1.03001 26.2941 1.42849 27.3188C1.84595 28.3877 2.39623 29.2922 3.30072 30.1904C4.19888 31.0885 5.10336 31.6451 6.16598 32.0563C7.19696 32.4547 8.37343 32.733 10.0938 32.8089C11.8206 32.8848 12.3709 32.9038 16.7668 32.9038C21.1627 32.9038 21.713 32.8848 23.4398 32.8089C25.1602 32.733 26.343 32.4547 27.3676 32.0563C28.4302 31.6451 29.3347 31.0885 30.2329 30.1904C31.1311 29.2922 31.6877 28.3877 32.0988 27.3251C32.4973 26.2941 32.7756 25.1177 32.8515 23.3972C32.9274 21.6705 32.9464 21.1202 32.9464 16.7243C32.9464 12.3284 32.9274 11.7781 32.8515 10.0513C32.7756 8.3309 32.4973 7.14811 32.0988 6.12345C31.7003 5.04819 31.15 4.1437 30.2455 3.24554C29.3474 2.34738 28.4429 1.79077 27.3803 1.37964C26.3493 0.981162 25.1728 0.702859 23.4524 0.626958C21.7193 0.544732 21.1691 0.525757 16.7731 0.525757Z" fill="white"/>
<path d="M16.7731 8.40048C12.1811 8.40048 8.45565 12.126 8.45565 16.718C8.45565 21.31 12.1811 25.0354 16.7731 25.0354C21.3651 25.0354 25.0906 21.31 25.0906 16.718C25.0906 12.126 21.3651 8.40048 16.7731 8.40048ZM16.7731 22.1132C13.794 22.1132 11.3778 19.6971 11.3778 16.718C11.3778 13.7388 13.794 11.3227 16.7731 11.3227C19.7522 11.3227 22.1684 13.7388 22.1684 16.718C22.1684 19.6971 19.7522 22.1132 16.7731 22.1132Z" fill="white"/>
<path d="M27.3613 8.07152C27.3613 9.14678 26.4884 10.0133 25.4195 10.0133C24.3442 10.0133 23.4777 9.14046 23.4777 8.07152C23.4777 6.99625 24.3506 6.12971 25.4195 6.12971C26.4884 6.12971 27.3613 7.00258 27.3613 8.07152Z" fill="white"/>
</g>
<defs>
<clipPath id="clip0_128_527">
<rect width="32.3844" height="32.3844" fill="white" transform="translate(0.580933 0.525757)"/>
</clipPath>
</defs>
</svg>
