<svg width="34" height="34" viewBox="0 0 34 34" fill="none" xmlns="http://www.w3.org/2000/svg">
<g clip-path="url(#clip0_128_525)">
<path d="M32.7321 10.5226C32.7321 10.5226 32.4158 8.28988 31.4417 7.30949C30.2083 6.01918 28.8295 6.01285 28.197 5.93695C23.6682 5.60805 16.8688 5.60805 16.8688 5.60805H16.8561C16.8561 5.60805 10.0567 5.60805 5.5279 5.93695C4.89539 6.01285 3.51653 6.01918 2.28314 7.30949C1.30908 8.28988 0.999146 10.5226 0.999146 10.5226C0.999146 10.5226 0.670242 13.1475 0.670242 15.7661V18.2202C0.670242 20.8388 0.992821 23.4637 0.992821 23.4637C0.992821 23.4637 1.30907 25.6965 2.27681 26.6769C3.5102 27.9672 5.12942 27.9229 5.85048 28.0621C8.44376 28.3087 16.8624 28.3847 16.8624 28.3847C16.8624 28.3847 23.6682 28.372 28.197 28.0494C28.8295 27.9735 30.2083 27.9672 31.4417 26.6769C32.4158 25.6965 32.7321 23.4637 32.7321 23.4637C32.7321 23.4637 33.0546 20.8452 33.0546 18.2202V15.7661C33.0546 13.1475 32.7321 10.5226 32.7321 10.5226ZM13.5165 21.1994V12.0976L22.2641 16.6643L13.5165 21.1994Z" fill="white"/>
</g>
<defs>
<clipPath id="clip0_128_525">
<rect width="32.3844" height="32.3844" fill="white" transform="translate(0.670242 0.807251)"/>
</clipPath>
</defs>
</svg>
