<svg width="33" height="34" viewBox="0 0 33 34" fill="none" xmlns="http://www.w3.org/2000/svg">
<g clip-path="url(#clip0_128_524)">
<path d="M16.4069 0.947998C7.46432 0.947998 0.214752 8.19757 0.214752 17.1402C0.214752 24.7337 5.44289 31.1056 12.4956 32.8557V22.0885H9.15673V17.1402H12.4956V15.008C12.4956 9.49683 14.9898 6.94235 20.4006 6.94235C21.4265 6.94235 23.1967 7.14378 23.9208 7.34456V11.8298C23.5386 11.7896 22.8748 11.7696 22.0503 11.7696C19.3954 11.7696 18.3694 12.7754 18.3694 15.3901V17.1402H23.6585L22.7498 22.0885H18.3694V33.2139C26.3872 32.2456 32.5998 25.4189 32.5998 17.1402C32.5991 8.19757 25.3496 0.947998 16.4069 0.947998Z" fill="white"/>
</g>
<defs>
<clipPath id="clip0_128_524">
<rect width="32.3844" height="32.3844" fill="white" transform="translate(0.214752 0.947998)"/>
</clipPath>
</defs>
</svg>
