<svg width="33" height="34" viewBox="0 0 33 34" fill="none" xmlns="http://www.w3.org/2000/svg">
<g clip-path="url(#clip0_128_526)">
<path d="M23.1624 0.666504H17.7047V22.7254C17.7047 25.3538 15.6056 27.5127 12.9933 27.5127C10.3811 27.5127 8.28198 25.3538 8.28198 22.7254C8.28198 20.1441 10.3344 18.032 12.8534 17.9382V12.4C7.30239 12.4938 2.82428 17.0464 2.82428 22.7254C2.82428 28.4514 7.39568 33.0509 13.04 33.0509C18.6842 33.0509 23.2556 28.4045 23.2556 22.7254V11.4143C25.3081 12.9163 27.827 13.808 30.4859 13.855V8.31673C26.381 8.17593 23.1624 4.79668 23.1624 0.666504Z" fill="white"/>
</g>
<defs>
<clipPath id="clip0_128_526">
<rect width="32.3844" height="32.3844" fill="white" transform="translate(0.12558 0.666504)"/>
</clipPath>
</defs>
</svg>
